<mxfile host="app.diagrams.net" agent="Mozilla/5.0 (Windows NT 10.0; Win64; x64) AppleWebKit/537.36 (KHTML, like Gecko) Chrome/135.0.0.0 Safari/537.36" version="26.2.12">
  <diagram name="Page-1" id="En8SGI2AzKv3A-gerEbh">
    <mxGraphModel dx="874" dy="439" grid="1" gridSize="10" guides="1" tooltips="1" connect="1" arrows="1" fold="1" page="1" pageScale="1" pageWidth="850" pageHeight="1100" math="0" shadow="0">
      <root>
        <mxCell id="0" />
        <mxCell id="1" parent="0" />
        <mxCell id="GXJvAcH2FRdkDiRwI9TB-20" value="" style="rounded=0;whiteSpace=wrap;html=1;" vertex="1" parent="1">
          <mxGeometry x="20" y="380" width="750" height="290" as="geometry" />
        </mxCell>
        <mxCell id="GXJvAcH2FRdkDiRwI9TB-11" value="" style="rounded=0;whiteSpace=wrap;html=1;" vertex="1" parent="1">
          <mxGeometry x="20" y="20" width="740" height="340" as="geometry" />
        </mxCell>
        <mxCell id="GXJvAcH2FRdkDiRwI9TB-5" value="" style="edgeStyle=orthogonalEdgeStyle;rounded=0;orthogonalLoop=1;jettySize=auto;html=1;" edge="1" parent="1" source="GXJvAcH2FRdkDiRwI9TB-1" target="GXJvAcH2FRdkDiRwI9TB-2">
          <mxGeometry relative="1" as="geometry" />
        </mxCell>
        <mxCell id="GXJvAcH2FRdkDiRwI9TB-1" value="MAIN_MENU" style="ellipse;whiteSpace=wrap;html=1;" vertex="1" parent="1">
          <mxGeometry x="150" y="130" width="100" height="50" as="geometry" />
        </mxCell>
        <mxCell id="GXJvAcH2FRdkDiRwI9TB-7" value="" style="edgeStyle=orthogonalEdgeStyle;rounded=0;orthogonalLoop=1;jettySize=auto;html=1;" edge="1" parent="1" source="GXJvAcH2FRdkDiRwI9TB-2" target="GXJvAcH2FRdkDiRwI9TB-4">
          <mxGeometry relative="1" as="geometry" />
        </mxCell>
        <mxCell id="GXJvAcH2FRdkDiRwI9TB-8" style="edgeStyle=orthogonalEdgeStyle;rounded=0;orthogonalLoop=1;jettySize=auto;html=1;entryX=0;entryY=0.5;entryDx=0;entryDy=0;" edge="1" parent="1" source="GXJvAcH2FRdkDiRwI9TB-2" target="GXJvAcH2FRdkDiRwI9TB-3">
          <mxGeometry relative="1" as="geometry" />
        </mxCell>
        <mxCell id="GXJvAcH2FRdkDiRwI9TB-2" value="STAGE_MENU" style="ellipse;whiteSpace=wrap;html=1;" vertex="1" parent="1">
          <mxGeometry x="340" y="115" width="120" height="80" as="geometry" />
        </mxCell>
        <mxCell id="GXJvAcH2FRdkDiRwI9TB-10" style="edgeStyle=orthogonalEdgeStyle;rounded=0;orthogonalLoop=1;jettySize=auto;html=1;entryX=0.5;entryY=0;entryDx=0;entryDy=0;" edge="1" parent="1" source="GXJvAcH2FRdkDiRwI9TB-3" target="GXJvAcH2FRdkDiRwI9TB-1">
          <mxGeometry relative="1" as="geometry">
            <Array as="points">
              <mxPoint x="600" y="70" />
              <mxPoint x="200" y="70" />
            </Array>
          </mxGeometry>
        </mxCell>
        <mxCell id="GXJvAcH2FRdkDiRwI9TB-3" value="STAGE_1" style="ellipse;whiteSpace=wrap;html=1;" vertex="1" parent="1">
          <mxGeometry x="540" y="115" width="120" height="80" as="geometry" />
        </mxCell>
        <mxCell id="GXJvAcH2FRdkDiRwI9TB-9" style="edgeStyle=orthogonalEdgeStyle;rounded=0;orthogonalLoop=1;jettySize=auto;html=1;entryX=0.5;entryY=1;entryDx=0;entryDy=0;" edge="1" parent="1" source="GXJvAcH2FRdkDiRwI9TB-4" target="GXJvAcH2FRdkDiRwI9TB-1">
          <mxGeometry relative="1" as="geometry">
            <mxPoint x="200" y="310" as="targetPoint" />
          </mxGeometry>
        </mxCell>
        <mxCell id="GXJvAcH2FRdkDiRwI9TB-4" value="STAGE_2" style="ellipse;whiteSpace=wrap;html=1;" vertex="1" parent="1">
          <mxGeometry x="340" y="270" width="120" height="80" as="geometry" />
        </mxCell>
        <mxCell id="GXJvAcH2FRdkDiRwI9TB-12" value="GameStates" style="text;html=1;align=center;verticalAlign=middle;whiteSpace=wrap;rounded=0;" vertex="1" parent="1">
          <mxGeometry x="560" y="250" width="100" height="30" as="geometry" />
        </mxCell>
        <mxCell id="GXJvAcH2FRdkDiRwI9TB-19" value="" style="edgeStyle=orthogonalEdgeStyle;rounded=0;orthogonalLoop=1;jettySize=auto;html=1;" edge="1" parent="1" source="GXJvAcH2FRdkDiRwI9TB-13" target="GXJvAcH2FRdkDiRwI9TB-14">
          <mxGeometry relative="1" as="geometry" />
        </mxCell>
        <mxCell id="GXJvAcH2FRdkDiRwI9TB-13" value="TOWER" style="ellipse;whiteSpace=wrap;html=1;" vertex="1" parent="1">
          <mxGeometry x="80" y="440" width="120" height="80" as="geometry" />
        </mxCell>
        <mxCell id="GXJvAcH2FRdkDiRwI9TB-18" style="edgeStyle=orthogonalEdgeStyle;rounded=0;orthogonalLoop=1;jettySize=auto;html=1;entryX=0;entryY=0.5;entryDx=0;entryDy=0;" edge="1" parent="1" source="GXJvAcH2FRdkDiRwI9TB-14" target="GXJvAcH2FRdkDiRwI9TB-16">
          <mxGeometry relative="1" as="geometry" />
        </mxCell>
        <mxCell id="GXJvAcH2FRdkDiRwI9TB-27" style="edgeStyle=orthogonalEdgeStyle;rounded=0;orthogonalLoop=1;jettySize=auto;html=1;entryX=1;entryY=0.5;entryDx=0;entryDy=0;" edge="1" parent="1" source="GXJvAcH2FRdkDiRwI9TB-14" target="GXJvAcH2FRdkDiRwI9TB-13">
          <mxGeometry relative="1" as="geometry" />
        </mxCell>
        <mxCell id="GXJvAcH2FRdkDiRwI9TB-14" value="ROUND" style="ellipse;whiteSpace=wrap;html=1;" vertex="1" parent="1">
          <mxGeometry x="300" y="440" width="120" height="80" as="geometry" />
        </mxCell>
        <mxCell id="GXJvAcH2FRdkDiRwI9TB-15" value="WIN" style="ellipse;whiteSpace=wrap;html=1;" vertex="1" parent="1">
          <mxGeometry x="300" y="530" width="120" height="80" as="geometry" />
        </mxCell>
        <mxCell id="GXJvAcH2FRdkDiRwI9TB-21" value="StageStates" style="text;html=1;align=center;verticalAlign=middle;whiteSpace=wrap;rounded=0;" vertex="1" parent="1">
          <mxGeometry x="550" y="600" width="80" height="30" as="geometry" />
        </mxCell>
        <mxCell id="GXJvAcH2FRdkDiRwI9TB-22" value="" style="endArrow=classic;html=1;rounded=0;exitX=0.003;exitY=0.345;exitDx=0;exitDy=0;exitPerimeter=0;entryX=0;entryY=0.5;entryDx=0;entryDy=0;" edge="1" parent="1" source="GXJvAcH2FRdkDiRwI9TB-20" target="GXJvAcH2FRdkDiRwI9TB-13">
          <mxGeometry width="50" height="50" relative="1" as="geometry">
            <mxPoint x="400" y="410" as="sourcePoint" />
            <mxPoint x="450" y="360" as="targetPoint" />
          </mxGeometry>
        </mxCell>
        <mxCell id="GXJvAcH2FRdkDiRwI9TB-16" value="LOOSE" style="ellipse;whiteSpace=wrap;html=1;" vertex="1" parent="1">
          <mxGeometry x="500" y="440" width="120" height="80" as="geometry" />
        </mxCell>
        <mxCell id="GXJvAcH2FRdkDiRwI9TB-29" value="" style="endArrow=classic;html=1;rounded=0;exitX=1;exitY=0.5;exitDx=0;exitDy=0;entryX=0.997;entryY=0.352;entryDx=0;entryDy=0;entryPerimeter=0;" edge="1" parent="1" source="GXJvAcH2FRdkDiRwI9TB-16" target="GXJvAcH2FRdkDiRwI9TB-20">
          <mxGeometry width="50" height="50" relative="1" as="geometry">
            <mxPoint x="400" y="510" as="sourcePoint" />
            <mxPoint x="450" y="460" as="targetPoint" />
          </mxGeometry>
        </mxCell>
        <mxCell id="GXJvAcH2FRdkDiRwI9TB-31" value="" style="endArrow=classic;html=1;rounded=0;exitX=0.5;exitY=1;exitDx=0;exitDy=0;entryX=0;entryY=0.5;entryDx=0;entryDy=0;" edge="1" parent="1" source="GXJvAcH2FRdkDiRwI9TB-13" target="GXJvAcH2FRdkDiRwI9TB-15">
          <mxGeometry width="50" height="50" relative="1" as="geometry">
            <mxPoint x="400" y="510" as="sourcePoint" />
            <mxPoint x="450" y="460" as="targetPoint" />
            <Array as="points">
              <mxPoint x="140" y="570" />
            </Array>
          </mxGeometry>
        </mxCell>
        <mxCell id="GXJvAcH2FRdkDiRwI9TB-33" value="" style="endArrow=classic;html=1;rounded=0;exitX=0.5;exitY=1;exitDx=0;exitDy=0;" edge="1" parent="1" source="GXJvAcH2FRdkDiRwI9TB-15">
          <mxGeometry width="50" height="50" relative="1" as="geometry">
            <mxPoint x="400" y="510" as="sourcePoint" />
            <mxPoint x="360" y="670" as="targetPoint" />
          </mxGeometry>
        </mxCell>
      </root>
    </mxGraphModel>
  </diagram>
</mxfile>
